<?xml version="1.0" standalone="no"?><!DOCTYPE svg PUBLIC "-//W3C//DTD SVG 1.1//EN" "http://www.w3.org/Graphics/SVG/1.1/DTD/svg11.dtd"><svg t="1590684059685" class="icon" viewBox="0 0 1024 1024" version="1.1" xmlns="http://www.w3.org/2000/svg" p-id="1885" xmlns:xlink="http://www.w3.org/1999/xlink" width="200" height="200"><defs><style type="text/css"></style></defs><path d="M782.4 98.2H243.6C163.3 98.2 98 163.6 98 243.9v538.7c0 80.3 65.3 145.6 145.6 145.6h538.7c80.3 0 145.6-65.3 145.6-145.6V243.9c0.1-80.3-65.2-145.7-145.5-145.7zM441.6 699.1c12.8 12.8 12.8 33.7 0 46.5-6.4 6.4-14.8 9.6-23.3 9.6s-16.8-3.2-23.3-9.6l-37-37.1-37.1 37.1c-6.4 6.4-14.8 9.6-23.3 9.6s-16.8-3.2-23.3-9.6c-12.8-12.8-12.8-33.7 0-46.5l37.1-37.1-37.1-37.1c-12.8-12.8-12.8-33.7 0-46.5 12.8-12.8 33.7-12.8 46.5 0l37.1 37.1 37.1-37.1c12.8-12.8 33.7-12.8 46.5 0 12.8 12.8 12.8 33.7 0 46.5l-37 37.1 37.1 37.1z m1.7-306.5h-52.5v52.5c0 18.2-14.7 32.9-32.9 32.9S325 463.3 325 445.1v-52.5h-52.5c-18.2 0-32.9-14.7-32.9-32.9s14.7-32.9 32.9-32.9H325v-52.5c0-18.2 14.7-32.9 32.9-32.9s32.9 14.7 32.9 32.9v52.5h52.5c18.2 0 32.9 14.7 32.9 32.9s-14.7 32.9-32.9 32.9z m314 362.3H586.6c-18.2 0-32.9-14.7-32.9-32.9s14.7-32.9 32.9-32.9h170.7c18.2 0 32.9 14.7 32.9 32.9 0 18.1-14.7 32.9-32.9 32.9z m0-108.6H586.6c-18.2 0-32.9-14.7-32.9-32.9s14.7-32.9 32.9-32.9h170.7c18.2 0 32.9 14.7 32.9 32.9s-14.7 32.9-32.9 32.9z m0-253.7H586.6c-18.2 0-32.9-14.7-32.9-32.9s14.7-32.9 32.9-32.9h170.7c18.2 0 32.9 14.7 32.9 32.9s-14.7 32.9-32.9 32.9z" p-id="1886" fill="#fdab0e"></path></svg>